<?xml version="1.0" encoding="utf-8"?>
<!-- Generator: Adobe Illustrator 22.1.0, SVG Export Plug-In . SVG Version: 6.00 Build 0)  -->
<svg version="1.1" id="Layer_1" xmlns="http://www.w3.org/2000/svg" xmlns:xlink="http://www.w3.org/1999/xlink" x="0px" y="0px"
	 viewBox="0 0 923.3 902.9" style="enable-background:new 0 0 923.3 902.9;" xml:space="preserve">
<style type="text/css">
	.st0{fill:#2651A6;}
</style>
<path class="st0" d="M447.3,14.6c4.8,13.5,14.1,42.6,15.8,68.8l2.8,43.3l11-42C482,65.3,493,32.2,512.8,15c1.6,15.1,4.8,46,6.7,69.4
	l3.7,46.2l10.1-45.2c3.1-13.8,8.7-26.2,16.6-36.8c2.2,11.9,5.3,34.2,3.9,63.7c-1.4,31.9-7.6,64.6-18.4,97.2l-0.1,0.4l-0.1,0.4
	c-6,29.3-5,42.3,3.7,46.3l0.2,0.1l0.2,0.1l0.1,0l0.2,0.1l0,0l0,0c0.2,0.1,0.6,0.2,1,0.3c0.9,0.2,1.8,0.3,2.7,0.3
	c6.6,0,12.8-5.3,19.5-16.6c4.9-8.4,9-18.3,11.2-24.7l0-0.1l0-0.1l0,0l0,0c22.9-71.5,52.6-114.9,66-132.2c1.5,14,3.2,37.9-0.1,52.9
	l-5.3,24l17.2-17.5c12.5-12.7,38.5-34.2,76.5-40.1c-1.9,11.2-7.3,35-20.4,52.7l-19.5,26.1l28.5-15.8c14.8-8.2,37.2-18,60.2-18
	c0.4,0,0.8,0,1.3,0c-3,11.4-12.4,38.5-37.8,62.5l-23.5,22.1l30.5-10.4c11.7-4,21.5-7.5,29.5-10.7c-19.4,20.6-54.9,55-100.6,84.6
	l-0.2,0.1l-0.2,0.1c-32,23.8-32.3,34.4-32.4,37.9c-0.1,4,1.5,7.6,4.5,10.2c3.5,3,7.9,4.5,13.1,4.5c9.7,0,20.3-5.4,28.8-9.7l1.4-0.7
	c8.3-4.2,15.3-7.4,18-8.5l0.5-0.2l0.5-0.3c61.3-39,101.1-48.7,118.2-51.1c-7.7,11.4-22.5,31.8-37.6,44.1l-22.7,18.6l28.7-6.3
	c7.3-1.6,15.4-2.4,24-2.4c18.9,0,39.5,3.9,61.4,11.5c-9,8.5-28.3,24.9-52.4,33.6l-33.1,12l35.2,1.6c17,0.8,42.6,5.5,71.5,23
	c-13.8,6.8-44,19.8-71.2,20.1l-29.3,0.3l26.3,12.9c15.9,7.8,35.5,16.9,50.4,22c-9.8,3-26.7,6.2-54.4,6.2c-27.7,0-61-3.1-99.1-9.3
	l-0.4-0.1l-0.4,0c-4.1-0.2-10.5-0.5-17.1-0.5c-7.7,0-14,0.4-18.7,1.1c-3.3,0.5-5.9,1.2-7.9,2.2c-5.6,2.7-6.3,7.1-6.3,8.8
	c-0.2,13.9,25.8,17.2,31,17.7c6.1,0.6,11,1.1,14,1.4l0.3,0l0.3,0c74.5,1.3,131.8,26.9,153.6,38.2c-12.5,4-34,9.9-52.7,10l-34.1,0.2
	l31.4,13.3c16.3,6.9,43.8,21.2,55.7,42.9c-6.6,0.6-17.3,1.3-29.7,1.3c-14.2,0-27.2-0.9-38.8-2.8l-35.7-5.7l31,18.6
	c14,8.4,33.8,25.2,50.2,58c-3,0.7-7.3,1.3-13.3,1.3c-9.6,0-26.1-1.7-49.8-9.9L751.2,649l31.4,25.2c8.9,7.1,16.2,15.5,21.7,25.1
	c-22.9-1.7-89.1-12.1-154.5-74.1l-0.2-0.2l-0.2-0.1c-9.1-7.5-25.6-20.2-34.8-20.2c-3.8,0-7,1.8-8.7,4.9
	c-6.6,11.8,10.8,27.9,12.8,29.6c5.9,5.3,10,9,10,9.1l1.4-1.5l-1.3,1.7c55.6,47.9,93.8,101.7,107.9,123
	c-15.9-3.2-45.9-11.1-69.3-27.8l-21.5-15.4l11,24c7,15.3,21.8,52.7,13.4,82.8c-12.1-5.2-43.7-19.9-60.1-40.4l-19.9-24.9l7.7,30.9
	c4,16.1,8.8,46.1-1.5,72.4c-9.3-6.4-30.3-23.5-41.1-52.5L541,781.8l0.9,41.3c0.3,13.4-0.6,33.6-5.6,58.2
	c-9.8-25.5-29-84.4-34.9-167.5l-0.5,0c-0.4-5.1-1.3-13.2-3.3-21.3c-4.8-20.4-13.3-30.7-25.4-30.7c-0.6,0-1.3,0-1.9,0.1
	c-6.3,0.6-14.8,3.9-19.3,16c-2.6,7-3.3,15.1-3.8,22.2l-0.1,1c-0.6,7.2-1.1,13.2-1.5,16.9l-0.1,0.7l0.1,0.7
	c6,65.2,0.5,106.8-5.2,130.1c-3.3,13.6-7,22.8-9.8,28.4c-6.7-13.6-19.5-41.5-22.9-63.1l-4.3-27.3l-9.3,26
	c-4.7,13.2-18.4,38.5-57.7,62.7c-3.2-12.3-9.1-40.9-3.3-67.5l6.7-30.8l-19.1,25.1c-10.2,13.4-29.6,31.3-64.6,42.7
	c0.4-5.5,1.2-13.7,2.9-23.1c3.7-20.7,9.9-37.7,18.1-49.2l14.7-20.8l-23.2,10.4c-17.9,8-39.8,18.4-53.2,27.4c1.3-5.7,4-14.1,9.8-25.1
	c11.6-22.1,38.2-60,98.9-114.8l0.5-0.4l0.4-0.5c5-6.4,13-18.6,11.2-28.9c-0.8-4.5-3.3-8.1-7.3-10.6c-3.2-1.9-6.6-2.9-10.1-2.9
	c-9.5,0-17.6,6.9-24.5,13.4c-2.7,2.6-5.1,4.8-7.1,6.8l-0.3,0.3l-0.3,0.3C234.5,691.6,175.3,730.7,155,743.1
	c0.4-13.2,3.6-40.1,20.9-64.1l15.3-21.2l-23.8,10.7c-12.9,5.8-38.2,15.4-63.4,15.4c-8.5,0-16.2-1.1-23-3.4
	c5.6-12.7,22.3-47.6,44.5-64.8l25.3-19.6l-31.2,7.3c-12,2.8-23.7,4.2-34.8,4.2c-15.3,0-28.9-2.7-40.7-8c6.7-9.7,25.4-32.8,56.8-43.7
	l38.7-13.5l-41-0.1c-14.3,0-35.8-1.6-61.9-8.1c26.4-9.9,90.6-30.2,180.5-33.5l0.3,0l0.3,0c23.8-3,36.7-10.8,37.2-22.7
	c0.2-4.8-1.4-9.1-4.5-12.4c-4.4-4.6-11.8-7-21.3-7h-0.1c-8.3,0-18.7,1.6-23,2.3l0-0.2c-33.5,6.4-66.8,9.7-98.9,9.7
	c-29.6,0-51.2-2.8-62-4.5c17.9-23.6,34.3-31.1,45.2-33.1l27.5-5.2L91.3,419c-26.1-8.2-40.9-20.1-48.6-28.6c-4.6-5-7.3-9.5-8.9-12.5
	c21.3-8.8,41.1-10.7,54.4-10.7c3.3,0,6.5,0.1,9.7,0.3l30.4,2.2l-26.4-15.2c-20.4-11.7-45-36-55.3-46.4c8.8-3.6,19-5.5,30.4-5.5
	c15.9,0,31.3,3.7,41.5,6.7l35.5,10.7l-29.1-22.9c-17.5-13.8-29.4-33.7-35.4-45.3c22.4,6.2,80.6,26.4,148.9,82.5l0.5,0.4l0.6,0.3
	c14,7.7,25.4,11.5,34.1,11.5c8.2,0,12.7-3.5,15.1-6.4c3-3.7,4.3-8.2,3.7-12.9c-1.3-10.6-11.4-19.5-17.3-23.9
	c-1.4-1.1-3.1-2.2-4.9-3.4l-0.3-0.2l-0.3-0.2c-56.9-29.2-89.6-55.8-107.1-72.9c-10-9.8-16.2-17.7-19.9-23.1
	c13.6,1.6,38.3,5.3,56.1,12.9l26.6,11.4l-18.4-22.3c-8.8-10.7-24-34.8-29.5-78.6c11.5,4,34.7,13.5,53,30.5l25.3,23.4l-14.2-31.4
	c-6.8-15-13.8-39.4-11-72.7c12.1,9,37.1,29.5,49.4,53l13.3,25.5l-0.1-28.8c0-17.5-0.6-38.9-2.7-54.2c3.3,3.4,7.3,8.1,11.9,14.7
	c12,17.2,30.6,50.9,50.9,114.1l0.1,0.3l0.1,0.3c22.5,54.8,32.5,54.8,37.3,54.8c1.4,0,2.8-0.3,4.1-0.8c9.1-3.9,8.6-16.7,8.4-20.9
	c-0.4-9.3-2.8-19.3-4.1-24.4l-0.1-0.3l-0.1-0.3c-27.8-75-24.2-142.9-21.3-168.9c8.8,11.6,23.4,32.5,28.7,51.9l9,32.5l4.6-33.4
	C422.7,71.4,429.9,35.8,447.3,14.6 M450,1.8l-2.1,2c-22.8,21.4-31.7,63.4-34.9,87.1C404.7,61.4,377,29,375.6,27.4l-2.7-3.1l-0.8,4
	c-0.2,1.1-16.1,86.4,20.1,183.9c3.9,14.5,6.6,34.1-0.2,37.1c-0.4,0.2-0.9,0.3-1.3,0.3c-9.1,0-24.5-35.1-30.8-50.5
	C319.6,73.6,285.1,58.9,283.4,58.2l-4-1.5l1.4,4.1c4.5,12.9,5.2,48.8,5.2,65.9c-17-32.6-56.7-59.3-58.6-60.5l-2.7-1.8l-0.4,3.2
	c-5.2,39.8,3.3,68.7,10.6,84.9c-26.2-24.3-61.4-33.9-63.1-34.4l-2.8-0.7l0.3,2.9c4.7,49.1,20.9,76.5,31.9,89.9
	c-26.2-11.3-66.1-14.3-68.1-14.4l-3.3-0.2l1.4,3c1.1,2.4,23.9,50.4,135,107.4c1.6,1,3.1,2.1,4.5,3.1c9.4,7,19.2,18.4,12.4,26.8
	c-2.2,2.7-5.6,3.8-9.6,3.8c-9.5,0-22.4-6.1-30.8-10.7c-89.2-73.2-161.1-86.2-162-86.4l-3.5-0.6l1.4,3.3c0.7,1.7,15.1,36.3,41.8,57.4
	c-11.5-3.5-27.3-7-43.5-7c-15.3,0-28.6,3.1-39.8,9.2l-2.2,1.2l1.7,1.9c1.6,1.7,34.9,37.3,61.6,52.7c-3-0.2-6.4-0.4-10.2-0.4
	c-14.8,0-37.6,2.3-61.8,13.3l-1.6,0.7l0.5,1.7c0.4,1.4,10.6,33.1,63.9,49.9c-13.4,2.5-33.3,12-54.2,42.4l-1.7,2.4l2.9,0.7
	c0.3,0.1,27.1,6.1,71.1,6.1c25.7,0,60.1-2.1,100.2-9.8l-1.9,0.5c0,0,13.7-2.5,23.7-2.5c0,0,0,0,0.1,0c9.9,0,19.2,2.9,18.8,12.1
	c-0.4,10.9-21.3,14.8-31.1,16C95.8,498,21.2,532.8,20.4,533.2l-4.6,2.2l4.9,1.5c33.1,10.1,60.6,12.3,78,12.3
	c-43.1,15-63.2,51-63.5,51.4l-1,1.8l1.8,1c13.8,7.5,30.3,11.3,48.9,11.3c13.8,0,26.6-2.1,36.3-4.4c-28.3,21.9-47.8,70.1-48.7,72.4
	l-0.7,1.8l1.8,0.8c8.8,3.8,19,5.7,30.4,5.7c26.7,0,53.4-10.3,66.2-16c-25.8,35.6-22.2,76.6-22.1,77.1l0.3,3l2.6-1.4
	c1-0.5,76.4-42.1,141-121.1c1.8-1.7,4.1-3.9,7.1-6.7c6.1-5.7,12.8-11.5,19.7-11.5c2.1,0,4.3,0.6,6.5,1.9c10.8,6.6-1.9,24.3-5.7,29.2
	C199.3,753.6,207.3,799.6,207.7,801.7l0.8,3.7l2.6-2.7c9.7-10,45-26.4,60.5-33.3c-21.3,30.2-22.5,80.9-22.5,83.2l-0.1,2.7l2.6-0.7
	c42.1-12.1,64.3-33.4,74.9-47.3c-7.9,36.1,4.6,75.4,5.2,77.3l0.8,2.3l2.1-1.2c44.4-25.7,60.5-53.4,66.3-69.7
	c4.7,30.2,26.6,71.3,27.7,73.3l1.4,2.7l1.9-2.4c1.6-2,32.5-43.3,20.7-170.8c0.4-4,0.9-10,1.5-17c1.1-13.3,2.2-31.4,16.9-32.8
	c0.4,0,0.8-0.1,1.2-0.1c20.2,0,22,50.6,22,50.6l0.2-5.1c8,114.3,41,183.2,41.4,184.1l2.4,4.8l1.4-5.2c8.2-31.5,9.7-57.6,9.4-75.1
	c15.2,40.7,48.6,59,49,59.2l1.8,1l0.9-1.9c13.8-28.7,9.2-62.1,4.2-82.3c21.3,26.5,65.8,43.7,68,44.6l1.9,0.7l0.7-1.9
	c12.5-33.1-4-75.7-11.9-93c34.8,24.9,82.9,30.9,83.4,30.9l4,0.5l-2.1-3.5c-0.6-1-43.6-72.3-115.3-134.1l0,0c0,0-4.1-3.8-10.1-9.1
	c-6-5.4-14.2-15.9-11.3-21c0.5-0.9,1.4-1.3,2.6-1.3c7.8,0,28.3,16.9,30.4,18.6c77.8,73.8,156.5,76.3,167,76.3c0.5,0,0.8,0,0.8,0
	l3-0.1l-1.3-2.7c-7.3-15.7-17.6-27.1-27.6-35c24.2,8.3,41.3,10.2,52.1,10.2c14.5,0,21-3.4,21.3-3.5l1.7-0.9l-0.8-1.7
	c-17.3-37-39-56.3-55.5-66.2c11.9,1.9,25.3,2.9,39.9,2.9c21.1,0,37.3-2.1,37.5-2.1l2.5-0.3l-0.9-2.4c-10.3-26.7-41.1-43.9-62.3-52.8
	c29.3-0.2,64.1-13.6,65.6-14.1l3.7-1.4l-3.3-2.1c-0.7-0.4-69-42.8-166.8-44.5c-2.8-0.3-7.8-0.8-14.1-1.4
	c-9.7-0.9-24.8-4.9-24.7-10.6c0.1-4.3,13.5-5.3,25.9-5.3c6.6,0,12.9,0.3,16.7,0.5c38.5,6.3,72,9.4,100.2,9.4
	c55.4,0,70-12.4,70.6-12.9l3.3-2.9l-4.4-0.6c-13.8-1.8-46.9-17.4-62.4-25.1c37.6-0.4,80.3-23.9,82.1-24.9l2.8-1.6l-2.7-1.8
	c-33.9-22.7-64.5-27.9-82.3-28.7c34.3-12.4,59.4-39.5,60.6-40.8l2-2.2l-2.7-1c-25.5-9.7-49.4-14.7-71.2-14.7
	c-10.5,0-19.1,1.2-25.5,2.6c22.3-18.3,43.5-52.6,44.6-54.3l1.8-2.9l-3.4-0.2c0,0-0.2,0-0.7,0c-6.2,0-50.9,1.9-131.1,53
	c-2.9,1.3-10,4.4-18.3,8.7c-8,4-18.5,9.7-27,9.7c-3.2,0-6.2-0.8-8.6-2.9c-9.4-7.9,15.7-28.2,27.6-37.1
	c71.4-46.3,118.1-103.8,118.7-104.6l-2.9-2.7c-5.1,4.7-33.1,14.8-50.8,20.9c35-33,41.1-71.5,41.1-72l0.3-2.1l-2.1-0.2
	c-2.5-0.2-5-0.3-7.6-0.3c-24.2,0-47.5,9.9-63.6,18.8c18.5-24.8,22.5-60.8,22.7-62.5l0.3-2.4l-2.4,0.3c-43.5,4.6-73.1,28.7-87.2,43
	c5.2-23.1-0.9-64.7-1.2-66.8l-0.6-4l-2.8,2.9c-0.6,0.6-43.7,46.5-74.8,143.5c0,0.1-0.1,0.2-0.1,0.3c-4.6,13.6-15.6,36.5-24,36.5
	c-0.4,0-0.7,0-1.1-0.1c-0.1,0-0.2-0.1-0.3-0.1c-0.1,0-0.2-0.1-0.3-0.1c-5.7-2.6-3.3-21.5,0.3-38.5c13-39.3,17.6-73.5,18.7-99.1
	c2.1-46.1-6.3-75.3-6.3-75.6l-1-3.4l-2.4,2.6c-14.7,15.7-21.5,33.5-24.7,47.6c-2.6-31.7-7.6-77.7-7.6-78.3l-0.3-3.1L515.8,4
	c-25.4,15.8-39.2,54.1-45.7,78.9c-2.3-35.7-18.2-76.4-19-78.4L450,1.8L450,1.8z"/>
<g>
	<g>
		<path class="st0" d="M532.7,518.6H328.5c-3.3,0-6-2.7-6-6V332.4c0-3.3,2.7-6,6-6h204.2c3.3,0,6,2.7,6,6v180.2
			C538.7,515.9,536,518.6,532.7,518.6z M334.5,506.5h192.2V338.4H334.5V506.5z"/>
	</g>
	<g>
		<path class="st0" d="M532.7,518.6c-2.2,0-4.3-1.2-5.4-3.3l-61-122.1l-42.5,74.3c-0.9,1.6-2.6,2.7-4.4,3c-1.8,0.2-3.7-0.4-5-1.7
			L383.6,438l-50,77.8c-1.8,2.8-5.5,3.6-8.3,1.8c-2.8-1.8-3.6-5.5-1.8-8.3l54.1-84.1c1-1.5,2.6-2.5,4.4-2.7c1.8-0.2,3.6,0.4,4.9,1.7
			l30.5,30.5l44.1-77.3c1.1-1.9,3.1-3.1,5.4-3c2.2,0.1,4.2,1.3,5.2,3.3l66.1,132.1c1.5,3,0.3,6.6-2.7,8.1
			C534.6,518.3,533.6,518.6,532.7,518.6z"/>
	</g>
	<g>
		<path class="st0" d="M388.6,410.5c-16.6,0-30-13.5-30-30c0-16.6,13.5-30,30-30c16.6,0,30,13.5,30,30
			C418.6,397,405.1,410.5,388.6,410.5z M388.6,362.4c-9.9,0-18,8.1-18,18s8.1,18,18,18c9.9,0,18-8.1,18-18S398.5,362.4,388.6,362.4z
			"/>
	</g>
	<g>
		<path class="st0" d="M520.7,578.6c-1,0-2-0.2-2.9-0.8l-108.1-60.1c-2.9-1.6-4-5.3-2.3-8.2c1.6-2.9,5.3-4,8.2-2.3l103,57.2
			l78.3-134.2l-67.4-44.9c-2.8-1.8-3.5-5.6-1.7-8.3c1.8-2.8,5.5-3.5,8.3-1.7l72.1,48c2.6,1.8,3.5,5.3,1.9,8l-84.1,144.1
			C524.8,577.5,522.8,578.6,520.7,578.6z"/>
	</g>
</g>
</svg>
