<?xml version="1.0" ?><svg width="24px" height="24px" viewBox="0 0 24 24" id="Main" xmlns="http://www.w3.org/2000/svg"><title/><path d="M20.22,5.56,12.41,2.09a1,1,0,0,0-.82,0L3.78,5.56A3,3,0,0,0,2,8.3V9a3,3,0,0,0,3,3v5H4.5a2.5,2.5,0,0,0,0,5h15a2.5,2.5,0,0,0,0-5H19V12a3,3,0,0,0,3-3V8.3A3,3,0,0,0,20.22,5.56ZM7,12H8v5H7Zm4,0v5H10V12Zm3,0v5H13V12Zm6,7.5a.5.5,0,0,1-.5.5H4.5a.5.5,0,0,1,0-1h15A.5.5,0,0,1,20,19.5ZM17,17H16V12h1Zm3-8a1,1,0,0,1-1,1H5A1,1,0,0,1,4,9V8.3a1,1,0,0,1,.59-.91L12,4.09l7.41,3.3A1,1,0,0,1,20,8.3Z"/></svg>