<?xml version="1.0" ?><svg width="24px" height="24px" viewBox="0 0 24 24" id="Main" xmlns="http://www.w3.org/2000/svg"><title/><path d="M20,5H4A2,2,0,0,0,2,7V17a2,2,0,0,0,2,2H20a2,2,0,0,0,2-2V7A2,2,0,0,0,20,5Zm0,3.91a1.43,1.43,0,0,1-.5.09A1.5,1.5,0,0,1,18,7.5a1.69,1.69,0,0,1,.08-.5H20ZM4,7H5.91A1.43,1.43,0,0,1,6,7.5,1.5,1.5,0,0,1,4.5,9,1.43,1.43,0,0,1,4,8.91ZM4,17V15.09A1.43,1.43,0,0,1,4.5,15,1.5,1.5,0,0,1,6,16.5a1.43,1.43,0,0,1-.09.5Zm4,0a4.21,4.21,0,0,0,0-.5A3.5,3.5,0,0,0,4.5,13,4.21,4.21,0,0,0,4,13V11a4.21,4.21,0,0,0,.5,0A3.5,3.5,0,0,0,8,7.5,4.21,4.21,0,0,0,8,7h3V8h-.51a2.5,2.5,0,0,0,0,5h3a.5.5,0,0,1,0,1H9a1,1,0,0,0,0,2h2v1Zm5-1h.51a2.5,2.5,0,0,0,0-5h-3a.5.5,0,0,1,0-1H15a1,1,0,0,0,0-2H13V7h3a4.21,4.21,0,0,0,0,.5A3.5,3.5,0,0,0,19.5,11a4.21,4.21,0,0,0,.5,0V13a4.21,4.21,0,0,0-.5,0A3.5,3.5,0,0,0,16,16.5a4.21,4.21,0,0,0,0,.5H13Zm7,1H18.09a1.43,1.43,0,0,1-.09-.5A1.5,1.5,0,0,1,19.5,15a1.43,1.43,0,0,1,.5.09Z"/></svg>