<svg id="Layer_1" data-name="Layer 1" xmlns="http://www.w3.org/2000/svg" viewBox="0 0 470 145"><defs><style>.cls-1{fill:#231f20;}.cls-2{fill:#0033a0;}.cls-3{fill:#f9e200;}.cls-4{fill:#53b5b2;}.cls-5{fill:#00548c;}.cls-6{fill:#9bace5;}.cls-7{fill:#5d6db3;}.cls-8{fill:#87b6e9;}</style></defs><path class="cls-1" d="M146,60.16a7,7,0,0,0,6.59,4c3.65,0,4.44-2.14,4.44-3.42,0-2.37-2.14-3.28-5.34-4.48-4.22-1.58-7.53-3.32-7.53-8,0-4.33,3.68-7.08,8.13-7.08a9.62,9.62,0,0,1,8.51,4.29l-3.47,2.37a5.42,5.42,0,0,0-5-2.44c-2.08,0-3.58,1.16-3.58,2.78,0,2.41,2.11,2.83,6,4.41,4.78,1.92,7,4,7,8,0,4.45-3,7.76-9.19,7.76-5,0-8.47-2.37-10.09-6L146,60.16Z"/><path class="cls-1" d="M165.09,48.94h4.48v2.71a5.85,5.85,0,0,1,10.43.23c1.17-2.38,3.43-3.32,6.1-3.32,4.14,0,6.47,2.94,6.47,7.61v6c0,1.39.23,2,1.28,2a3.46,3.46,0,0,0,.64-.07v3.8a6.61,6.61,0,0,1-2,.23c-2.37,0-4.45-1-4.45-5V56.81c0-2.56-1.2-4.22-3.31-4.22s-3.65,1.81-3.65,4.41V67.92h-4.48V56.81c0-2.56-1.21-4.22-3.39-4.22s-3.69,1.81-3.69,4.41V67.92h-4.48v-19Z"/><path class="cls-1" d="M197,44a2.69,2.69,0,1,1,2.71,2.67A2.68,2.68,0,0,1,197,44Zm.45,4.9h4.52V62.27c0,1.39.3,2,1.32,2a4.19,4.19,0,0,0,.79-.08V68a6.35,6.35,0,0,1-2.26.3c-2.37,0-4.37-1-4.37-4.82V48.94Z"/><path class="cls-1" d="M207.45,41.67H212v20c0,1.84.6,2.63,2.26,2.63a5.3,5.3,0,0,0,1.36-.15v4a8.84,8.84,0,0,1-2.15.23c-2.45,0-6-.68-6-6.14V41.67Z"/><path class="cls-1" d="M218.67,53.05H216.3V48.94h2.37V41.67h4.52v7.27h4.18v4.11h-4.18v8.47c0,2.07.75,2.82,2.37,2.82a7.45,7.45,0,0,0,1.58-.15v4a10.68,10.68,0,0,1-2.33.23c-2.6,0-6.14-.75-6.14-6.44v-9Z"/><path class="cls-1" d="M229.25,58.43c0-6.1,4.25-10,9.94-10s9.38,4.26,9.38,9.57c0,0,0,.83-.08,1.58H233.73c.15,3,2.37,5,5.73,5a6.56,6.56,0,0,0,5.12-2.18L247.29,65a10.27,10.27,0,0,1-8,3.39c-5.95,0-10.06-3.84-10.06-9.79v-.15Zm14.72-2c0-2.25-2.14-4.14-4.78-4.14-2.82,0-5.16,1.85-5.35,4.14Z"/><path class="cls-1" d="M251.09,48.94h4.48v2.71a6,6,0,0,1,5.69-3.09c4.48,0,7.07,2.94,7.07,7.61v6c0,1.39.23,2,1.29,2a3.79,3.79,0,0,0,.64-.07v3.8a7.27,7.27,0,0,1-2,.23c-2.37,0-4.45-1-4.45-5V56.81c0-2.56-1.47-4.22-4-4.22A4.19,4.19,0,0,0,255.57,57V67.92h-4.48v-19Z"/><path class="cls-1" d="M271.72,58.43c0-6.1,4.26-10,9.95-10S291,52.67,291,58c0,0,0,.83-.08,1.58H276.21c.15,3,2.37,5,5.72,5a6.55,6.55,0,0,0,5.12-2.18L289.76,65a10.27,10.27,0,0,1-8,3.39c-5.95,0-10.06-3.84-10.06-9.79v-.15Zm14.73-2c0-2.25-2.15-4.14-4.78-4.14-2.83,0-5.17,1.85-5.35,4.14Z"/><path class="cls-1" d="M295,62.12a5.77,5.77,0,0,0,5,2.37c2.6,0,3.39-1.09,3.39-2.07,0-1.58-2.26-2-5.2-3-2.78-1-4.67-2.45-4.67-5.35,0-3.65,3.09-5.69,6.71-5.69a8,8,0,0,1,6.59,2.87l-2.52,2.67a5.12,5.12,0,0,0-4.15-1.66c-1.43,0-2.3.68-2.3,1.7,0,1.43,1.59,1.62,4.79,2.78,3.5,1.25,5.08,2.91,5.08,5.66,0,3.27-2.37,6-7.79,6-4,0-6.67-1.58-7.84-3.84l2.9-2.45Z"/><path class="cls-1" d="M319.16,48.94h4.49v2.71c.86-1.81,2.93-3.09,5.68-3.09,4.48,0,7.08,2.94,7.08,7.61v6c0,1.39.22,2,1.28,2a3.57,3.57,0,0,0,.64-.07v3.8a7.14,7.14,0,0,1-2,.23c-2.37,0-4.44-1-4.44-5V56.81c0-2.56-1.47-4.22-4-4.22A4.18,4.18,0,0,0,323.65,57V67.92h-4.49v-19Z"/><path class="cls-1" d="M349.89,48.37a10.06,10.06,0,1,1-10.36,10.06,10.12,10.12,0,0,1,10.36-10.06Zm0,16A6,6,0,1,0,344,58.43a5.83,5.83,0,0,0,5.87,5.95Z"/><polygon class="cls-1" points="360.02 48.94 364.68 48.94 370.07 61.82 375.42 48.94 380.08 48.94 371.95 67.92 368.15 67.92 360.02 48.94 360.02 48.94"/><path class="cls-1" d="M389.42,48.52c3.2,0,5.39,1.44,6.07,3.17V48.94H400V62.19c0,1.59.38,2.23,1.4,2.23a7.61,7.61,0,0,0,.94-.08V68a6.78,6.78,0,0,1-2.22.3,5.3,5.3,0,0,1-2.64-.6,3.69,3.69,0,0,1-1.55-2.3c-1.09,1.62-3.08,3-6.51,3-5.34,0-9.48-4.29-9.48-9.94a9.55,9.55,0,0,1,9.48-9.91ZM390,64.23a5.8,5.8,0,1,0,0-11.6,5.8,5.8,0,0,0,0,11.6Z"/><path class="cls-1" d="M413.18,48.52c3.2,0,5.39,1.44,6.06,3.17v-10h4.52V62.19c0,1.59.38,2.23,1.39,2.23a7.61,7.61,0,0,0,1-.08V68a6.78,6.78,0,0,1-2.22.3,5.26,5.26,0,0,1-2.64-.6,3.66,3.66,0,0,1-1.55-2.3c-1.09,1.62-3.08,3-6.51,3-5.35,0-9.49-4.29-9.49-9.94a9.55,9.55,0,0,1,9.49-9.91Zm.6,15.71a5.8,5.8,0,1,0,0-11.6,5.8,5.8,0,0,0,0,11.6Z"/><path class="cls-1" d="M436.9,48.52c3.2,0,5.39,1.44,6.06,3.17V48.94h4.52V62.19c0,1.59.38,2.23,1.39,2.23a7.3,7.3,0,0,0,.94-.08V68a6.7,6.7,0,0,1-2.22.3,5.29,5.29,0,0,1-2.63-.6,3.69,3.69,0,0,1-1.55-2.3c-1.08,1.62-3.08,3-6.51,3-5.35,0-9.49-4.29-9.49-9.94a9.55,9.55,0,0,1,9.49-9.91Zm.6,15.71a5.8,5.8,0,1,0,0-11.6,5.8,5.8,0,0,0,0,11.6Zm-4.74-21.47h11.6V46h-11.6V42.76Z"/><path class="cls-2" d="M146.26,97.59a5.74,5.74,0,0,0,5,2.38c2.6,0,3.39-1.09,3.39-2.07,0-1.59-2.26-2-5.2-3-2.78-1-4.66-2.45-4.66-5.35,0-3.65,3.08-5.68,6.7-5.68a8,8,0,0,1,6.59,2.86l-2.52,2.67a5.12,5.12,0,0,0-4.15-1.65c-1.43,0-2.29.68-2.29,1.69,0,1.43,1.58,1.62,4.78,2.79,3.5,1.24,5.08,2.9,5.08,5.65,0,3.27-2.37,6-7.79,6-4,0-6.67-1.58-7.83-3.84l2.89-2.45Z"/><path class="cls-2" d="M170.44,84c3.2,0,5.38,1.43,6.06,3.16V84.41H181V97.67c0,1.58.37,2.22,1.39,2.22a7.43,7.43,0,0,0,.94-.07v3.65a6.74,6.74,0,0,1-2.22.3,5.2,5.2,0,0,1-2.64-.6,3.62,3.62,0,0,1-1.54-2.3c-1.09,1.62-3.09,3-6.51,3-5.35,0-9.49-4.3-9.49-9.95a9.55,9.55,0,0,1,9.49-9.9Zm.6,15.7a5.8,5.8,0,0,0,0-11.6,5.8,5.8,0,0,0,0,11.6Z"/><path class="cls-2" d="M186.14,84.41h4.48v2.71c.86-1.8,2.93-3.08,5.68-3.08,4.48,0,7.08,2.93,7.08,7.6v6c0,1.39.23,2,1.28,2a2.78,2.78,0,0,0,.64-.08v3.81a7.76,7.76,0,0,1-2,.22c-2.37,0-4.44-1-4.44-5V92.28c0-2.56-1.47-4.21-4-4.21a4.18,4.18,0,0,0-4.29,4.4V103.4h-4.48v-19Z"/><path class="cls-2" d="M216.44,84c3.21,0,5.39,1.43,6.07,3.16V84.41H227V97.67c0,1.58.37,2.22,1.38,2.22a7.45,7.45,0,0,0,1-.07v3.65a6.74,6.74,0,0,1-2.22.3,5.2,5.2,0,0,1-2.64-.6,3.62,3.62,0,0,1-1.54-2.3c-1.09,1.62-3.09,3-6.52,3-5.34,0-9.48-4.3-9.48-9.95a9.54,9.54,0,0,1,9.48-9.9Zm.61,15.7a5.8,5.8,0,0,0,0-11.6,5.8,5.8,0,0,0,0,11.6ZM212.3,78.24h11.6v3.2H212.3v-3.2Z"/><polygon class="cls-2" points="232.41 77.14 236.89 77.14 236.89 92.47 243.89 84.41 249.09 84.41 241.67 92.89 249.88 103.4 244.76 103.4 238.78 95.75 236.89 97.86 236.89 103.4 232.41 103.4 232.41 77.14 232.41 77.14"/><path class="cls-2" d="M252,77.14h5.46l-.8,19.63h-3.87L252,77.14Zm2.74,21.55a2.6,2.6,0,1,1-2.59,2.6,2.6,2.6,0,0,1,2.59-2.6Z"/><polygon class="cls-2" points="72.11 58.94 84.93 41.43 84.78 21.28 78.72 24.25 75.17 38.53 74.35 22.17 63.06 11 56.62 25.51 61.82 41.05 53.32 29.04 46.59 28.48 53.79 47.31 72.11 58.94 72.11 58.94"/><polygon class="cls-3" points="82.86 61.83 104.54 60.94 120.19 48.25 114.09 45.36 100.72 51.5 113 40.65 114.68 24.87 99.33 28.88 90.43 42.62 94.51 28.49 90.75 22.88 80.52 40.25 82.86 61.83 82.86 61.83"/><polygon class="cls-4" points="87.31 72.04 101.52 88.44 121.2 92.77 119.65 86.19 106.52 79.56 122.65 82.4 136.04 73.88 123.33 64.37 107.03 65.98 120.63 60.36 122.66 53.92 102.72 56.76 87.31 72.04 87.31 72.04"/><polygon class="cls-5" points="82.1 81.89 78.15 103.23 87.04 121.31 91.21 116.01 88.2 101.6 96.04 115.99 111.06 121.14 110.56 105.27 99.14 93.53 112.01 100.66 118.31 98.24 103.65 84.4 82.1 81.89 82.1 81.89"/><polygon class="cls-6" points="66.36 93.84 67.57 85.88 52.02 94.17 43.43 112.4 50.17 112.36 59.56 101.02 53.21 116.12 58.54 131.07 70.63 120.79 72.69 104.54 75.14 119.05 80.96 122.46 82.64 102.38 72.99 86.9 66.36 93.84 66.36 93.84"/><polygon class="cls-7" points="62.72 76.68 42.8 68.06 23.19 72.69 27.43 77.94 42.14 78.22 26.37 82.66 18 96.15 33.57 99.21 47.56 90.69 37.75 101.65 38.7 108.33 55.45 97.13 62.72 76.68 62.72 76.68"/><polygon class="cls-8" points="63.14 65.55 57.46 44.6 41.61 32.15 40.15 38.74 49.1 50.42 35.8 40.86 20.04 42.72 27.36 56.81 42.74 62.43 28.06 61.59 23.43 66.51 42.63 72.62 63.14 65.55 63.14 65.55"/><polyline class="cls-2" points="61.82 41.05 53.32 29.04 46.59 28.48 53.79 47.31 72.11 58.94"/></svg>