<svg xmlns="http://www.w3.org/2000/svg" xmlns:xlink="http://www.w3.org/1999/xlink" version="1.1" width="256" height="256" viewBox="0 0 256 256" xml:space="preserve">
<desc>Created with Fabric.js 1.7.22</desc>
<defs>
</defs>
<g transform="translate(128 128) scale(0.72 0.72)" style="">
	<g style="stroke: none; stroke-width: 0; stroke-dasharray: none; stroke-linecap: butt; stroke-linejoin: miter; stroke-miterlimit: 10; fill: none; fill-rule: nonzero; opacity: 1;" transform="translate(-175.05 -175.05000000000004) scale(3.89 3.89)" >
	<path d="M 45 74.703 H 16.296 c -0.404 0 -0.769 -0.244 -0.924 -0.617 c -0.155 -0.374 -0.069 -0.804 0.217 -1.09 l 7.711 -7.711 C 18.131 59.765 15.296 52.601 15.296 45 c 0 -16.378 13.325 -29.704 29.704 -29.704 c 16.378 0 29.703 13.325 29.703 29.704 C 74.703 61.378 61.378 74.703 45 74.703 z M 18.711 72.703 H 45 c 15.275 0 27.703 -12.428 27.703 -27.703 c 0 -15.276 -12.428 -27.704 -27.703 -27.704 c -15.276 0 -27.704 12.428 -27.704 27.704 c 0 7.4 2.882 14.357 8.114 19.59 c 0.188 0.188 0.293 0.441 0.293 0.707 s -0.105 0.52 -0.293 0.707 L 18.711 72.703 z" style="stroke: none; stroke-width: 1; stroke-dasharray: none; stroke-linecap: butt; stroke-linejoin: miter; stroke-miterlimit: 10; fill: rgb(0,0,0); fill-rule: nonzero; opacity: 1;" transform=" matrix(1 0 0 1 0 0) " stroke-linecap="round" />
	<path d="M 81.741 90 H 8.259 C 3.705 90 0 86.295 0 81.741 V 8.259 C 0 3.705 3.705 0 8.259 0 h 73.482 C 86.295 0 90 3.705 90 8.259 v 73.482 C 90 86.295 86.295 90 81.741 90 z M 8.259 2 C 4.808 2 2 4.808 2 8.259 v 73.482 C 2 85.192 4.808 88 8.259 88 h 73.482 C 85.192 88 88 85.192 88 81.741 V 8.259 C 88 4.808 85.192 2 81.741 2 H 8.259 z" style="stroke: none; stroke-width: 1; stroke-dasharray: none; stroke-linecap: butt; stroke-linejoin: miter; stroke-miterlimit: 10; fill: rgb(0,0,0); fill-rule: nonzero; opacity: 1;" transform=" matrix(1 0 0 1 0 0) " stroke-linecap="round" />
</g>
</g>
</svg>