<?xml version="1.0" encoding="UTF-8" standalone="no"?>
<!-- Created with Inkscape (http://www.inkscape.org/) -->

<svg
   width="22.863979mm"
   height="22.009893mm"
   viewBox="0 0 22.863979 22.009893"
   version="1.1"
   id="svg34625"
   inkscape:version="1.1 (c68e22c387, 2021-05-23)"
   sodipodi:docname="KimPortr.svg"
   xmlns:inkscape="http://www.inkscape.org/namespaces/inkscape"
   xmlns:sodipodi="http://sodipodi.sourceforge.net/DTD/sodipodi-0.dtd"
   xmlns="http://www.w3.org/2000/svg"
   xmlns:svg="http://www.w3.org/2000/svg">
  <sodipodi:namedview
     id="namedview34627"
     pagecolor="#ffffff"
     bordercolor="#666666"
     borderopacity="1.0"
     inkscape:pageshadow="2"
     inkscape:pageopacity="0.0"
     inkscape:pagecheckerboard="0"
     inkscape:document-units="mm"
     showgrid="false"
     fit-margin-top="0"
     fit-margin-left="0"
     fit-margin-right="0"
     fit-margin-bottom="0"
     inkscape:zoom="0.77771465"
     inkscape:cx="-203.15935"
     inkscape:cy="39.217469"
     inkscape:window-width="1920"
     inkscape:window-height="1137"
     inkscape:window-x="-8"
     inkscape:window-y="-8"
     inkscape:window-maximized="1"
     inkscape:current-layer="layer1" />
  <defs
     id="defs34622" />
  <g
     inkscape:label="Layer 1"
     inkscape:groupmode="layer"
     id="layer1"
     transform="translate(-149.82574,-138.00536)">
    <g
       id="g22126"
       transform="matrix(0.26619676,0,0,0.26619676,90.365409,135.97521)">
      <path
         id="path1420"
         style="fill:#0032be;fill-opacity:1;stroke-width:0.109125"
         d="m 262.55722,7.6265026 c -0.0665,0 -0.12085,0.095427 -0.12085,0.2120636 0,0.1981772 -0.3701,0.5518009 -0.57758,0.5518009 -0.051,0 -0.0771,-0.1342376 -0.0577,-0.2981769 0.0499,-0.4236864 -0.24222,-0.4425945 -0.81907,-0.053253 -0.52706,0.3557126 -1.16462,0.3770587 -1.16456,0.039048 3e-5,-0.1424723 -0.106,-0.1759423 -0.5243,-0.1651778 -1.09432,0.028106 -2.69279,1.1825444 -3.28908,2.3753686 -0.10124,0.202544 -0.2698,0.353433 -0.41816,0.374475 -0.15967,0.02264 -0.23768,0.09937 -0.21826,0.214412 0.0466,0.275912 -0.35503,0.306601 -0.42668,0.03259 -0.0726,-0.277872 -0.23422,-0.291629 -0.42776,-0.03669 -0.13615,0.179315 -0.14526,0.177834 -0.14856,-0.02431 -0.003,-0.206821 -0.01,-0.206161 -0.16624,0.01724 -0.10715,0.152978 -0.23741,0.213066 -0.38066,0.175623 -0.14681,-0.03836 -0.2426,0.0093 -0.29412,0.146422 -0.042,0.111835 -0.15043,0.258774 -0.24084,0.32652 -0.14499,0.108645 -0.14073,0.159184 0.0358,0.428609 0.19646,0.299795 0.19593,0.308904 -0.0333,0.49447 -0.12841,0.103981 -0.23359,0.26214 -0.23359,0.351452 0,0.08932 -0.1474,0.442647 -0.32758,0.785187 -0.24715,0.469844 -0.35461,0.867884 -0.43736,1.620658 -0.0603,0.548824 -0.13395,1.120656 -0.16368,1.27071 -0.0297,0.150038 -0.0761,0.750069 -0.10294,1.333358 -0.0429,0.932605 -0.16338,1.889876 -0.33697,2.676948 -0.0752,0.341068 0.0998,0.307461 0.28411,-0.05454 0.35218,-0.691668 0.67871,-1.098254 1.14772,-1.428838 0.39972,-0.281746 0.57301,-0.516455 0.8811,-1.193332 0.87,-1.911481 1.55018,-2.638344 2.53308,-2.707221 0.28131,-0.01967 0.6926,-0.111615 0.91413,-0.204179 0.22154,-0.09256 0.49664,-0.168163 0.61126,-0.168163 0.11462,0 0.27274,-0.07758 0.35146,-0.172425 0.0902,-0.108721 0.24651,-0.152477 0.42264,-0.118285 0.1638,0.03183 0.41491,-0.02765 0.6068,-0.143657 0.18005,-0.10885 0.46995,-0.196681 0.64408,-0.195442 0.2067,0.0015 0.38385,-0.08691 0.51025,-0.254483 0.18377,-0.243642 0.21907,-0.249863 0.69587,-0.122341 0.43168,0.115466 0.54027,0.109617 0.77197,-0.04216 0.25747,-0.168687 0.26962,-0.166242 0.26962,0.05416 0,0.155706 0.069,0.23082 0.21185,0.23082 0.11651,0 0.23737,-0.04117 0.26854,-0.09164 0.0804,-0.130098 0.82661,-0.08799 0.91733,0.05181 0.0992,0.152864 0.66444,0.255508 0.73937,0.134268 0.0321,-0.05196 0.1566,-0.09442 0.27664,-0.09442 0.12004,0 0.18776,-0.04907 0.15068,-0.109116 -0.17612,-0.285004 0.10567,-0.291895 0.49214,-0.01192 0.23542,0.170548 0.62391,0.34153 0.86318,0.379808 0.23926,0.03829 0.48038,0.150533 0.53582,0.249576 0.0619,0.110536 0.17077,0.153152 0.28218,0.110407 0.0998,-0.03829 0.26542,-0.02545 0.36809,0.02856 0.10265,0.05401 0.37201,0.178737 0.59847,0.277286 0.22646,0.09855 0.38307,0.22554 0.34806,0.282195 -0.0351,0.05667 0.0621,0.150874 0.21568,0.209291 0.15366,0.05842 0.27942,0.156533 0.27942,0.218034 0,0.06153 0.0999,0.111904 0.22208,0.111904 0.12216,0 0.34515,0.08048 0.49553,0.179027 0.22056,0.144508 0.32632,0.155066 0.5469,0.05454 0.38698,-0.176322 0.48148,-0.156404 0.48148,0.101451 0,0.241591 0.23624,0.537945 0.42882,0.537945 0.0643,0 0.11679,-0.04907 0.11679,-0.109123 0,-0.06001 0.079,-0.109124 0.17541,-0.109124 0.10922,0 0.15226,0.06024 0.11403,0.159845 -0.0651,0.169736 0.48847,0.380584 1.02005,0.388546 0.15005,0.0023 0.36357,0.07285 0.47444,0.156867 0.11086,0.08398 0.26752,0.127309 0.34826,0.09633 0.17673,-0.06784 1.59174,0.657833 1.85937,0.953564 0.15553,0.171855 0.16743,0.259063 0.0663,0.48104 -0.15855,0.347965 -0.0643,0.585811 0.26471,0.668384 0.31771,0.07974 0.33781,0.319151 0.0424,0.503632 -0.27586,0.172281 -0.27869,0.37115 -0.008,0.516425 0.31485,0.168497 0.44376,0.137914 0.44376,-0.105288 0,-0.225919 0.26326,-0.301139 0.38193,-0.109124 0.037,0.06001 0.14495,0.109124 0.23956,0.109124 0.0946,0 0.29116,0.128746 0.43693,0.286023 0.21767,0.234876 0.33156,0.275001 0.6379,0.225281 0.40855,-0.06631 0.57569,0.06784 0.37938,0.304354 -0.0986,0.118847 -0.0754,0.17813 0.10827,0.276436 0.28279,0.151345 0.54413,0.06996 0.54413,-0.169227 0,-0.316971 0.37665,-0.123397 0.43628,0.22421 0.0437,0.255189 0.11951,0.333463 0.3489,0.35999 0.21434,0.02476 0.36934,0.164077 0.57695,0.518339 0.24628,0.42023 0.33235,0.484451 0.64942,0.484451 0.28797,0 0.37861,0.05211 0.42733,0.245525 0.0341,0.135043 0.17304,0.294638 0.30883,0.354658 0.26151,0.115588 0.40235,0.510658 0.48637,1.364048 0.0266,0.270077 0.0749,0.61318 0.10721,0.762383 h -2.2e-4 c 0.0894,0.412816 0.23283,0.0752 0.37618,-0.885781 0.1858,-1.245588 0.40775,-2.476348 0.59762,-3.314012 0.0952,-0.420124 0.24332,-1.156717 0.32908,-1.636861 0.0858,-0.480143 0.28372,-1.118529 0.43991,-1.418614 0.55883,-1.073687 0.73274,-1.678815 0.65496,-2.279887 -0.26887,-2.077692 -0.33796,-2.240667 -1.48512,-3.510732 -0.8404,-0.930432 -1.83579,-1.684391 -2.22404,-1.684391 -0.13199,0 -0.2871,-0.0471 -0.34464,-0.104649 -0.16884,-0.168832 -2.42757,-0.8678908 -3.03629,-0.9397008 -0.30716,-0.03623 -0.70587,-0.110574 -0.88621,-0.165178 -0.18035,-0.05462 -0.69596,-0.1524924 -1.1458,-0.2176094 -1.36692,-0.1978579 -1.88261,-0.2930037 -2.50943,-0.4633545 -1.52158,-0.4135071 -1.65266,-0.4269456 -1.82122,-0.1862737 -0.1165,0.1663175 -0.27655,0.2216577 -0.64026,0.2216577 -0.42198,0 -0.48488,-0.030231 -0.48488,-0.2325281 0,-0.2110455 0.0453,-0.2273329 0.49276,-0.1768993 0.49463,0.055756 0.78493,-0.083896 0.41456,-0.1994918 -0.10884,-0.033957 -0.27516,-0.1022408 -0.36958,-0.1517551 -0.19453,-0.1020204 -0.91528,0.00683 -1.2545,0.189267 -0.12418,0.066769 -0.37486,0.1173046 -0.55714,0.1121009 -0.18227,-0.00533 -0.38674,0.024615 -0.45418,0.066321 -0.0675,0.041707 -0.32433,0.015265 -0.57098,-0.058572 -0.34838,-0.1043752 -0.4951,-0.1052184 -0.6571,-0.00377 -0.23979,0.1497501 -0.24653,0.1332956 -0.10208,-0.2465972 0.13035,-0.3428365 -0.006,-0.3663327 -0.41881,-0.072243 -0.23035,0.1638107 -0.43385,0.1993319 -0.96848,0.1679508 -0.3749,-0.022027 -0.89432,0.025752 -1.16434,0.1069888 -0.41252,0.1241571 -0.4964,0.1234888 -0.54541,-0.00455 -0.068,-0.1772334 -0.42875,-0.1974783 -0.72209,-0.040491 -0.16286,0.087162 -0.23053,0.066016 -0.31991,-0.1010257 -0.0623,-0.1164535 -0.0835,-0.2890457 -0.0473,-0.383425 0.0363,-0.094371 0.0114,-0.171574 -0.055,-0.171574 z M 280.35171,21.50061 c 0.0314,0.0068 0.0664,0.02636 0.10145,0.06138 0.0784,0.07837 0.0803,0.139366 0.006,0.18543 -0.0611,0.03775 -0.14397,0.0155 -0.18414,-0.04946 -0.0778,-0.125821 -0.0172,-0.218141 0.0769,-0.197364 z m -25.38735,2.29651 c -0.14823,-0.006 -0.33874,7.82e-4 -0.54904,0.02241 -0.84774,0.08685 -1.03625,0.150699 -1.03625,0.351026 0,0.117768 0.2151,0.1537 0.95483,0.15964 0.52516,0.0045 1.05306,0.04991 1.17309,0.101451 0.29184,0.125418 0.89981,0.133121 0.97444,0.01238 0.0953,-0.154186 -0.21018,-0.344896 -0.66454,-0.414761 -0.23043,-0.0354 -0.48111,-0.113407 -0.55713,-0.173276 -0.0412,-0.03244 -0.14719,-0.05241 -0.2954,-0.0588 z m 10.8084,1.423308 c -0.0818,-0.0045 -0.1809,0.01383 -0.31032,0.05394 l -0.35252,0.109124 0.27281,0.117434 c 0.5285,0.227241 0.94358,0.08876 0.59677,-0.199058 -0.0604,-0.05021 -0.12493,-0.07708 -0.20674,-0.08142 z m -10.99383,1.798202 c -0.89482,-0.04839 -1.81137,0.157088 -2.01858,0.57333 -0.18621,0.374005 -0.008,0.549879 0.55904,0.549879 0.37819,0 0.48507,-0.04816 0.6053,-0.272805 0.18141,-0.338948 0.39799,-0.350867 0.49659,-0.02727 0.0412,0.135035 0.15032,0.331458 0.24255,0.436494 0.23617,0.268946 0.81526,0.245618 1.07185,-0.04307 0.11433,-0.128623 0.34995,-0.321339 0.52367,-0.428396 l 0.31586,-0.194591 -0.3668,-0.223148 c -0.36348,-0.221042 -0.89259,-0.341408 -1.42948,-0.370427 z m 2.16245,0.795838 c -0.20644,0 -0.20689,0.0068 -0.0158,0.218247 0.19715,0.217852 0.49107,0.296141 0.49107,0.130865 0,-0.159109 -0.25875,-0.349112 -0.4753,-0.349112 z m 8.57966,0.163689 c -0.77856,0 -0.90392,0.03023 -1.26515,0.305629 -0.34076,0.259801 -0.72827,0.790916 -0.72827,0.998316 0,0.192768 0.59768,0.0076 0.93693,-0.290285 l 0.39898,-0.350183 0.1995,0.268339 c 0.41616,0.560141 0.5426,0.650487 0.912,0.650487 0.29169,0 0.43461,-0.07743 0.64941,-0.351885 0.24829,-0.317244 0.25916,-0.370123 0.10998,-0.534967 -0.10399,-0.114905 -0.12436,-0.208265 -0.0548,-0.251285 0.0609,-0.03768 0.16105,0.0256 0.22251,0.140452 0.0614,0.114821 0.22357,0.238226 0.3602,0.274522 0.13662,0.03623 0.4119,0.211448 0.61169,0.389176 0.24663,0.219402 0.52691,0.344622 0.873,0.390033 0.28035,0.03677 0.58325,0.08266 0.67328,0.101877 0.35497,0.07581 0.65475,0.055 0.65475,-0.04543 0,-0.05812 -0.26979,-0.309231 -0.59955,-0.558198 -0.44611,-0.336828 -0.71842,-0.460826 -1.06396,-0.484451 -0.25542,-0.01747 -0.81585,-0.171453 -1.24533,-0.342077 -0.62688,-0.249051 -0.95133,-0.310111 -1.64519,-0.310111 z m 16.57069,2.348515 c -0.0883,0.0046 -0.17916,0.02643 -0.27686,0.06396 -0.1731,0.06639 -0.24603,0.370207 -0.0889,0.370207 0.046,0 0.34064,0.224811 0.65475,0.49959 0.46377,0.405691 0.58474,0.584899 0.64365,0.953344 l 0.0727,0.45354 0.13727,-0.380226 c 0.25269,-0.700024 0.19444,-0.985803 -0.30522,-1.494913 -0.33136,-0.337633 -0.57262,-0.479117 -0.83738,-0.465482 z m -2.11727,2.334871 c -0.0353,-0.0038 -0.069,-3.27e-4 -0.10039,0.01169 -0.0909,0.03487 -0.22949,0.183289 -0.30797,0.329931 -0.13407,0.25051 -0.10898,0.299621 0.41773,0.812672 0.56497,0.550297 0.99559,0.732727 0.83826,0.355083 -0.0437,-0.105037 -0.12518,-0.393612 -0.18116,-0.641318 -0.0998,-0.441736 -0.41961,-0.840081 -0.66647,-0.868089 z m -22.83487,3.024359 c -0.10972,-0.006 -0.20651,0.07042 -0.31693,0.228054 -0.21153,0.302059 -0.21132,0.354969 0.001,0.567997 0.22567,0.225676 0.40362,0.216332 0.71655,-0.03753 l 0.25768,-0.208866 -0.2645,-0.282187 c -0.16205,-0.172804 -0.28479,-0.261387 -0.39451,-0.267487 z m 3.04972,0.472942 c -0.20136,-0.02347 -0.41483,0.03016 -0.6556,0.159214 -0.2323,0.1245 -0.50897,0.226345 -0.61488,0.226345 -0.10593,0 -0.19268,0.04717 -0.19268,0.104862 0,0.105659 0.35887,0.214077 1.36405,0.4122 0.3001,0.05918 0.63156,0.114305 0.73659,0.122547 0.27988,0.02203 0.24477,-0.442267 -0.0545,-0.721666 -0.19233,-0.17952 -0.38156,-0.280029 -0.58292,-0.303502 z m -3.55741,3.851532 c -0.17819,-0.0078 -0.28193,0.09061 -0.5015,0.286874 -0.22287,0.199225 -0.54952,0.409261 -0.72593,0.466766 -0.17641,0.0575 -0.41849,0.235719 -0.53816,0.395997 -0.22935,0.307187 -0.17808,0.521727 0.0746,0.312026 0.0817,-0.06776 0.34057,-0.190808 0.57545,-0.273451 0.50275,-0.176861 2.11781,-0.08628 3.43379,0.192677 1.03112,0.218567 2.84799,0.698543 2.92121,0.77175 0.10914,0.109154 0.34668,0.05355 0.34421,-0.08056 -0.001,-0.07505 -0.46877,-0.431039 -1.03839,-0.791151 -0.99035,-0.626117 -1.06794,-0.655265 -1.7707,-0.665612 -0.79236,-0.01169 -1.47767,-0.111045 -1.82613,-0.264927 -0.51756,-0.228556 -0.77025,-0.342586 -0.94845,-0.350389 z m 22.36599,2.721281 c -0.0705,3.96e-4 -0.11629,0.01451 -0.14686,0.03988 -0.0853,0.0708 -0.15515,0.198124 -0.15515,0.283045 0,0.303017 -1.39417,3.05002 -1.87429,3.692956 -0.72835,0.975336 -1.53258,1.819024 -2.2411,2.351075 -0.3473,0.260802 -0.75428,0.581784 -0.90433,0.713355 -0.15005,0.131564 -0.39557,0.276474 -0.54562,0.321833 -0.15004,0.04535 -0.33697,0.173534 -0.41539,0.284959 -0.0784,0.111425 -0.2152,0.20269 -0.30393,0.20269 -0.0887,0 -0.2701,0.0708 -0.40303,0.157506 -0.26313,0.171551 -0.98852,0.378631 -1.62877,0.464844 -0.22277,0.03 -0.4621,0.123222 -0.53176,0.207163 -0.17413,0.2098 -0.75471,0.201269 -0.75471,-0.01109 0,-0.246035 -0.74394,-0.208645 -1.37173,0.06905 -0.37264,0.164836 -0.81511,0.245161 -1.5143,0.274727 -0.54333,0.02294 -1.47894,0.07771 -2.07912,0.121703 -0.95282,0.06981 -2.78661,0.0259 -5.1834,-0.124255 -0.39011,-0.02446 -0.84747,-0.09895 -1.01643,-0.165604 -0.16896,-0.06662 -0.45399,-0.121058 -0.63344,-0.121058 -0.17943,0 -0.54611,-0.100113 -0.8148,-0.222523 -0.26869,-0.122395 -0.5314,-0.196271 -0.58378,-0.163894 -0.0523,0.03236 -0.35777,-0.07601 -0.67861,-0.241053 -0.79252,-0.407672 -2.00178,-1.709657 -2.70701,-2.914171 -0.6935,-1.184497 -0.82525,-1.493211 -0.59975,-1.406679 0.0875,0.03357 0.159,0.0068 0.159,-0.05986 0,-0.06647 -0.0614,-0.126277 -0.13641,-0.133205 -0.0751,-0.0068 -0.20594,-0.01922 -0.29093,-0.02727 -0.085,-0.0081 -0.30595,-0.296286 -0.49106,-0.640467 -0.1851,-0.344174 -0.41019,-0.626194 -0.50022,-0.626612 -0.31387,-0.0015 -2.57441,1.044069 -3.92847,1.816966 l -1.36405,0.778572 -1.47317,0.05606 c -1.56173,0.05948 -4.41874,0.329749 -5.51078,0.521317 -0.90133,0.158121 -4.53395,1.727479 -5.88098,2.540759 -0.57209,0.345404 -0.71816,0.386068 -1.32441,0.36808 -0.59536,-0.01763 -0.74052,0.02066 -1.149,0.30329 -1.1842,0.819334 -1.92283,2.512742 -2.53947,5.822584 -0.15128,0.811921 -0.21255,0.950663 -0.5403,1.220832 -0.48998,0.403875 -0.88647,1.321978 -1.16691,2.702306 -0.17747,0.873489 -0.33004,1.297821 -0.67478,1.875785 -0.24503,0.41081 -0.51185,0.772456 -0.59272,0.803511 -0.0809,0.03107 -0.22608,0.242707 -0.32268,0.470389 -0.31752,0.74833 -0.81332,2.144283 -0.81332,2.289915 0,0.117397 7.63635,0.142799 42.94569,0.142799 h 42.94548 l -0.31288,-0.463773 c -1.0861,-1.609733 -2.55378,-4.618876 -2.65181,-5.43682 -0.0407,-0.340171 -0.27478,-1.061222 -0.53134,-1.636853 -0.36274,-0.813895 -0.48,-1.233981 -0.56096,-2.010912 -0.16654,-1.597852 -0.6915,-2.849297 -1.44377,-3.441033 -0.35849,-0.281997 -1.26052,-0.539069 -1.89794,-0.540718 -0.31433,-7.82e-4 -0.63788,-0.106791 -1.02646,-0.335902 -0.92238,-0.543855 -1.9456,-1.036206 -2.99814,-1.442702 -0.54313,-0.209753 -1.22983,-0.503715 -1.52582,-0.653031 -0.60882,-0.307134 -2.71368,-1.005494 -3.57083,-1.184809 -0.31257,-0.0654 -0.72145,-0.211753 -0.9086,-0.325243 -0.18714,-0.113492 -0.51564,-0.206306 -0.72997,-0.206306 -0.29839,0 -0.50894,-0.103297 -0.89836,-0.440338 -0.59289,-0.513143 -1.28631,-0.883585 -2.11193,-1.128541 -0.8515,-0.252637 -1.40835,-0.614625 -2.10427,-1.367672 -0.63934,-0.691835 -0.93301,-0.805129 -1.41669,-0.546263 -0.4127,0.220868 -0.70195,0.03821 -0.96486,-0.609558 -0.39249,-0.967048 -0.50826,-1.037816 -3.03672,-1.853838 -0.92425,-0.298284 -1.36011,-0.417564 -1.57185,-0.415825 z m -22.21722,0.79669 c -0.39077,0 -0.39264,0.0023 -0.17946,0.20866 0.11837,0.114806 0.559,0.307475 0.97914,0.427971 0.88852,0.254839 1.77355,0.291272 2.04608,0.08441 0.28602,-0.217123 0.24011,-0.264624 -0.32737,-0.339526 -0.28509,-0.0376 -0.87966,-0.138977 -1.32122,-0.225068 -0.44155,-0.08609 -0.98018,-0.156442 -1.19717,-0.156442 z m 12.19761,3.820843 c -0.21299,-0.04375 -0.67234,0.07353 -0.94055,0.278137 -0.23534,0.179483 -0.44188,0.25566 -0.57653,0.212922 -0.11537,-0.03662 -0.29872,-0.01534 -0.40751,0.0471 -0.23966,0.137535 -1.07711,0.437505 -1.45272,0.520473 -0.15004,0.03312 -0.33501,0.10964 -0.41112,0.169866 -0.0761,0.06024 -0.32166,0.148101 -0.54563,0.195229 -0.22396,0.0471 -0.75105,0.165239 -1.17116,0.262581 -0.42014,0.09735 -0.9732,0.224004 -1.22915,0.281343 -0.59464,0.133227 -2.72402,0.130933 -4.06338,-0.0046 -2.00504,-0.202401 -3.13595,-0.499181 -3.47961,-0.913273 -0.15879,-0.191325 -0.44886,-0.243027 -0.44886,-0.07993 0,0.15272 0.74684,1.01072 1.13004,1.298194 0.78356,0.587809 2.37064,1.210743 3.45318,1.355312 0.67988,0.09079 3.6844,-0.2695 4.10003,-0.491698 1.88216,-1.00617 2.50135,-1.212026 3.57916,-1.189708 0.58696,0.01215 0.80681,-0.02932 1.01259,-0.191188 0.14457,-0.113712 0.47006,-0.240156 0.72337,-0.280903 0.70272,-0.113059 1.26777,-0.532157 1.2756,-0.946097 0.002,-0.100988 -0.0948,-0.214669 -0.21483,-0.252781 -0.12004,-0.03806 -0.21825,-0.11517 -0.21825,-0.171142 0,-0.0531 -0.0436,-0.08557 -0.11467,-0.100174 z m -11.57931,5.36264 c 0.15466,0.01253 0.51242,0.41239 1.11042,1.237878 0.52612,0.726232 1.85363,2.061793 1.85363,1.864915 0,-0.03145 -0.44255,-0.557552 -0.9834,-1.169039 -0.54086,-0.611487 -0.96335,-1.131747 -0.93885,-1.156246 0.0245,-0.02446 0.45105,0.159883 0.9478,0.409641 1.35926,0.683425 2.4042,0.994911 3.53886,1.055228 0.88565,0.0471 1.04415,0.02446 1.61278,-0.230614 0.74217,-0.332947 0.74613,-0.333585 0.66008,-0.109337 -0.0375,0.09755 0.25369,-0.04581 0.66497,-0.32737 0.74094,-0.507271 1.13798,-0.647312 0.96656,-0.341014 -0.19206,0.343179 -3.29946,2.890713 -4.18295,3.429312 -0.49034,0.298922 -0.53289,0.291926 -0.61149,-0.101026 -0.0364,-0.182186 -0.1702,-0.385719 -0.29731,-0.452264 -0.12711,-0.06655 -0.41965,-0.289685 -0.65006,-0.495755 -0.23041,-0.206062 -0.45138,-0.340907 -0.49106,-0.299658 -0.0397,0.04125 0.0506,0.154262 0.20056,0.251064 0.67677,0.436615 1.22051,1.219707 0.84572,1.218058 -0.45934,-0.0023 -0.97604,-0.272486 -1.40925,-0.737436 -0.98712,-1.059512 -3.02312,-3.896033 -2.89114,-4.028007 0.0139,-0.0139 0.0321,-0.02013 0.0542,-0.01831 z m 7.62825,2.095096 c -0.006,-0.01413 -0.0452,-0.0038 -0.11999,0.02499 -0.0985,0.03783 -0.17925,0.112649 -0.17925,0.166242 0,0.140338 0.0632,0.120518 0.22038,-0.06882 0.0577,-0.06951 0.0849,-0.108166 0.0789,-0.122342 z m 31.0194,5.090048 c 0.06,0 0.10912,0.04907 0.10912,0.109124 0,0.06001 -0.049,0.109123 -0.10912,0.109123 -0.06,0 -0.10912,-0.04907 -0.10912,-0.109123 0,-0.06001 0.0491,-0.109124 0.10912,-0.109124 z m -34.13904,2.75602 c 0.0671,0.0096 0.14277,0.06867 0.17648,0.169866 0.0238,0.07126 -0.0345,0.129588 -0.12958,0.129588 -0.095,0 -0.17285,-0.07783 -0.17285,-0.172858 0,-0.09635 0.0588,-0.13619 0.12595,-0.126596 z m -0.87746,0.19033 c 0.18225,0 0.21397,0.0607 0.18564,0.3538 -0.0351,0.362473 -0.23771,0.489578 -0.50513,0.317137 -0.0789,-0.05089 -0.26304,-0.06951 -0.40921,-0.04155 -0.21194,0.04049 -0.26577,0.0053 -0.26577,-0.173701 0,-0.295337 0.18563,-0.400289 0.39726,-0.224643 0.14079,0.116833 0.18709,0.109168 0.27346,-0.0452 0.0572,-0.102203 0.2029,-0.185848 0.32375,-0.185848 z m 2.11258,0.414321 c 0.0586,-0.0045 0.1121,0.06176 0.1121,0.20398 0,0.100023 -0.0655,0.203708 -0.14557,0.230395 -0.0998,0.03327 -0.13412,-0.03244 -0.10912,-0.209086 0.0203,-0.143916 0.084,-0.220397 0.14259,-0.225289 z" />
      <text
         xml:space="preserve"
         style="font-style:normal;font-variant:normal;font-weight:normal;font-stretch:normal;font-size:15.4093px;line-height:1.25;font-family:'Mukta Malar';-inkscape-font-specification:'Mukta Malar, Normal';font-variant-ligatures:normal;font-variant-caps:normal;font-variant-numeric:normal;font-variant-east-asian:normal;fill:#0032be;fill-opacity:1;stroke:none;stroke-width:0.385232"
         x="222.13712"
         y="76.620407"
         id="text17703"><tspan
           sodipodi:role="line"
           id="tspan17701"
           x="222.13712"
           y="76.620407"
           style="stroke-width:0.385232">KIM JONG-UN</tspan></text>
      <text
         xml:space="preserve"
         style="font-style:normal;font-variant:normal;font-weight:normal;font-stretch:normal;font-size:21.4086px;line-height:1.25;font-family:'Mukta Malar';-inkscape-font-specification:'Mukta Malar, Normal';font-variant-ligatures:normal;font-variant-caps:normal;font-variant-numeric:normal;font-variant-east-asian:normal;fill:#0032be;fill-opacity:1;stroke:none;stroke-width:0.535214"
         x="221.65729"
         y="90.116623"
         id="text17703-7"><tspan
           sodipodi:role="line"
           id="tspan17701-1"
           x="221.65729"
           y="90.116623"
           style="stroke-width:0.535214">DICTATOR</tspan></text>
    </g>
  </g>
</svg>
