<?xml version="1.0" encoding="iso-8859-1"?>
<!-- Generator: Adobe Illustrator 18.0.0, SVG Export Plug-In . SVG Version: 6.00 Build 0)  -->
<!DOCTYPE svg PUBLIC "-//W3C//DTD SVG 1.1//EN" "http://www.w3.org/Graphics/SVG/1.1/DTD/svg11.dtd">
<svg version="1.1" id="Capa_1" xmlns="http://www.w3.org/2000/svg" xmlns:xlink="http://www.w3.org/1999/xlink" x="0px" y="0px"
	 viewBox="0 0 493 493" style="enable-background:new 0 0 493 493;" xml:space="preserve">
<path d="M24.594,344.416C9.003,355.144,0,367.783,0,382.292c0,53.774,124.005,81.909,246.5,81.909S493,436.067,493,382.292
	c0-7.701-2.555-14.875-7.273-21.518l-14.873-161.074c-0.376-13.644-11.593-24.627-25.322-24.627h-49.004
	c24.654-6.537,42.88-29.035,42.88-55.717c0-20.064-10.311-37.759-25.906-48.086c2.932-4.09,4.592-8.813,4.592-13.887
	c0-16.029-16.528-28.586-37.627-28.586S342.84,41.355,342.84,57.384c0,5.569,1.999,10.717,5.488,15.066
	c-14.635,10.465-24.202,27.584-24.202,46.906c0,26.682,18.227,49.18,42.88,55.717H318c-13.717,0-24.923,10.962-25.319,24.585
	l-9.925,101.553c-12.02-0.548-24.144-0.827-36.255-0.827c-3.723,0-7.447,0.027-11.169,0.079V184.392
	c-0.004-14.436-11.75-26.182-26.186-26.182l-73.734-0.001c30.943-2.766,55.285-28.826,55.285-60.478
	c0-33.489-27.245-60.734-60.733-60.734c-33.489,0-60.734,27.245-60.734,60.734c0,31.651,24.34,57.711,55.284,60.478l-73.734-0.001
	c-14.438,0-26.184,11.746-26.185,26.185L24.594,344.416z M350.16,120.724l57.732-19.193c3.477,5.08,5.516,11.219,5.516,17.826
	c0,17.446-14.194,31.641-31.641,31.641C364.778,150.998,350.879,137.539,350.16,120.724z M95.229,97.732
	c0-19.152,15.582-34.734,34.734-34.734c19.152,0,34.733,15.582,34.733,34.734c0,19.152-15.582,34.734-34.733,34.734
	C110.811,132.466,95.229,116.884,95.229,97.732z M318.608,201.667c0.019-0.197,0.034-0.395,0.044-0.594h126.228
	c0.009,0.176,0.022,0.352,0.038,0.526l12.575,136.192c-34.006-18.421-88.882-30.179-148.773-34.961L318.608,201.667z
	 M50.594,184.394c0-0.103,0.083-0.186,0.185-0.186l55.242,0.001l10.165,12.735l-12.783,76.006
	c-0.646,3.843,0.465,7.773,3.029,10.708l13.74,15.73c2.469,2.826,6.038,4.448,9.79,4.448c0.001,0,0.001,0,0.001,0
	c3.752,0,7.322-1.621,9.79-4.447l13.74-15.728c2.564-2.936,3.676-6.865,3.029-10.709l-12.783-76.008l10.164-12.735l55.242,0.001
	c0.102,0,0.186,0.085,0.186,0.186v116.858c-61.054,2.853-119.267,12.745-158.737,29.36L50.594,184.394z M407.93,418.55
	c-42.941,12.673-100.271,19.651-161.43,19.651c-61.159,0-118.489-6.979-161.43-19.651C44.265,406.508,26,391.663,26,382.292
	s18.265-24.215,59.07-36.257c42.94-12.673,100.271-19.651,161.43-19.651s118.489,6.979,161.43,19.651
	c40.805,12.042,59.07,26.887,59.07,36.257S448.735,406.508,407.93,418.55z"/>
<g>
</g>
<g>
</g>
<g>
</g>
<g>
</g>
<g>
</g>
<g>
</g>
<g>
</g>
<g>
</g>
<g>
</g>
<g>
</g>
<g>
</g>
<g>
</g>
<g>
</g>
<g>
</g>
<g>
</g>
</svg>
